<svg width="184" height="36" viewBox="0 0 184 36" fill="none" xmlns="http://www.w3.org/2000/svg">
<path d="M33.9012 5.17969H29.3756V21.6581C29.3756 22.7547 29.3756 23.5252 29.4333 24.2958C29.5486 26.3704 30.8169 27.2299 32.9788 27.2299C33.9877 27.2299 34.8236 27.1706 35.6884 27.0817V23.9105C34.3336 23.9698 34.0165 23.7327 33.9301 23.0214C33.9012 22.6065 33.9012 22.2508 33.9012 21.5692V5.17969Z" fill="white"/>
<path d="M51.6005 18.7833C51.6005 14.5747 49.0639 10.7515 44.1635 10.7515C39.292 10.7515 36.2077 14.3673 36.2077 19.1093C36.2077 24.6811 39.5803 27.3781 43.8753 27.3781C47.6226 27.3781 50.5051 25.4517 51.3411 21.8063H46.8731C46.6137 23.2881 45.5472 24.1773 43.9618 24.1773C42.2611 24.1773 40.9927 23.2881 40.7333 20.2651H51.514C51.5717 19.702 51.6005 19.1982 51.6005 18.7833ZM43.9618 13.9524C45.6336 13.9524 46.6425 15.1082 46.9019 17.331H40.8486C41.2233 14.9897 42.3475 13.9524 43.9618 13.9524Z" fill="white"/>
<path d="M60.3026 10.7515C55.95 10.7515 52.4333 13.7745 52.4333 19.1982C52.4333 24.5625 55.6617 27.3781 59.9279 27.3781C63.9346 27.3781 66.8748 25.3331 67.4801 21.3617H63.0122C62.6663 23.1992 61.5709 24.1773 60.1873 24.1773C58.3137 24.1773 57.0742 22.5768 57.0742 18.9018C57.0742 15.5528 58.2848 13.9524 60.1873 13.9524C61.6862 13.9524 62.7528 14.8415 63.0698 17.005H67.4801C67.2495 13.4782 64.5976 10.7515 60.3026 10.7515Z" fill="white"/>
<path d="M74.607 14.2487H77.8643V11.285H74.607V7.31358H70.0814V11.285H67.7465V14.2487H70.0814V21.5099C70.0814 22.399 70.0814 23.1103 70.1391 23.9105C70.312 26.2222 71.4074 27.3485 74.7799 27.3485C75.76 27.3485 76.6536 27.2596 77.576 27.1114V24.1476C75.27 24.2958 74.7511 23.9402 74.6358 22.3694C74.607 21.9545 74.607 21.421 74.607 20.8875V14.2487Z" fill="white"/>
<path d="M86.2847 10.7515C81.1826 10.7515 78.1847 14.1302 78.1847 19.05C78.1847 23.9698 81.1826 27.3781 86.2847 27.3781C91.3579 27.3781 94.3846 23.9698 94.3846 19.05C94.3846 14.1302 91.3579 10.7515 86.2847 10.7515ZM86.2847 24.1773C84.1228 24.1773 82.8256 22.3397 82.8256 19.05C82.8256 15.7602 84.1228 13.9524 86.2847 13.9524C88.4177 13.9524 89.7149 15.7602 89.7149 19.05C89.7149 22.3397 88.4177 24.1773 86.2847 24.1773Z" fill="white"/>
<path d="M110.91 15.1082C110.564 12.3519 108.69 10.7515 105.462 10.7515C104.02 10.7515 102.925 11.0479 101.887 11.7592L100.619 13.656V11.1664H96.0934V26.9632H100.619V19.6427C100.619 15.6121 101.945 13.9524 103.732 13.9524C105.49 13.9524 106.355 14.96 106.471 16.5604C106.528 17.3607 106.528 18.1609 106.528 18.7536V26.9632H111.054V18.0423C111.054 16.7679 111.025 15.9084 110.91 15.1082Z" fill="white"/>
<path d="M127.999 18.7833C127.999 14.5747 125.462 10.7515 120.562 10.7515C115.691 10.7515 112.606 14.3673 112.606 19.1093C112.606 24.6811 115.979 27.3781 120.274 27.3781C124.021 27.3781 126.904 25.4517 127.74 21.8063H123.272C123.012 23.2881 121.946 24.1773 120.36 24.1773C118.66 24.1773 117.391 23.2881 117.132 20.2651H127.913C127.97 19.702 127.999 19.1982 127.999 18.7833ZM120.36 13.9524C122.032 13.9524 123.041 15.1082 123.301 17.331H117.247C117.622 14.9897 118.746 13.9524 120.36 13.9524Z" fill="white"/>
<path d="M135.202 14.2487H138.46V11.285H135.202V7.31358H130.677V11.285H128.342V14.2487H130.677V21.5099C130.677 22.399 130.677 23.1103 130.734 23.9105C130.907 26.2222 132.003 27.3485 135.375 27.3485C136.355 27.3485 137.249 27.2596 138.171 27.1114V24.1476C135.865 24.2958 135.346 23.9402 135.231 22.3694C135.202 21.9545 135.202 21.421 135.202 20.8875V14.2487Z" fill="white"/>
<path d="M9.51004 15.101C9.12014 16.5027 9.52595 17.9153 10.5498 18.7184C11.9568 19.8229 13.9514 19.1275 14.3612 17.3617C14.4673 16.9022 14.4978 16.3772 14.397 15.9218C14.092 14.5569 13.7074 13.2111 13.3466 11.8367C11.5828 12.0467 9.9742 13.4348 9.51004 15.101ZM16.8676 14.7097C17.2297 16.0895 17.2456 17.4599 16.6992 18.8002C15.2033 22.4681 10.4384 23.0817 7.98229 19.9265C6.25562 17.708 6.2848 14.5256 8.06186 12.108C9.09627 10.7009 10.4543 9.78051 12.104 9.30736L12.6066 9.16556C12.4952 8.59969 12.3573 8.05292 12.2844 7.4966C12.051 5.70084 12.9634 4.0837 14.5972 3.35149C16.2231 2.622 18.1885 3.05696 19.2786 4.38776C19.817 5.04089 19.8024 5.86037 19.2454 6.38397C18.6991 6.89801 17.9246 6.85575 17.3424 6.26125C17.0148 5.92582 16.666 5.6613 16.1793 5.66675C15.4831 5.67493 14.8704 6.23671 14.9261 6.94438C14.9752 7.58251 15.1555 8.21245 15.324 8.83422C15.3531 8.94058 15.6104 9.0183 15.7722 9.04284C17.5413 9.31146 19.0929 10.0396 20.3767 11.3281C23.769 14.7274 24.1708 20.2333 21.2679 24.1998C19.2401 26.9705 16.4804 28.5194 13.1424 28.848C7.01419 29.448 1.65249 25.3983 0.278575 19.2243C-0.974654 13.5738 2.10869 7.5416 7.35369 5.38587C8.13082 5.0668 8.8695 5.3436 9.17187 6.0649C9.47954 6.79711 9.14667 7.54569 8.3629 7.90566C5.22253 9.351 3.30091 11.7985 2.7731 15.3014C2.06625 19.9824 4.96923 24.5407 9.40394 25.8278C13.0151 26.8778 16.9074 25.6015 19.0956 22.6508C21.1989 19.8147 20.9522 15.6982 18.5293 13.2793C17.8572 12.6061 17.0227 12.1293 16.1117 11.8981C16.3743 12.8743 16.6276 13.7906 16.8676 14.7097V14.7097Z" fill="white"/>
<path d="M152.192 25.216C150.5 25.216 149.21 24.832 148.322 24.064C147.434 23.284 146.99 22.138 146.99 20.626V16.774C146.99 15.262 147.434 14.122 148.322 13.354C149.21 12.574 150.5 12.184 152.192 12.184C153.368 12.184 154.328 12.382 155.072 12.778C155.828 13.162 156.428 13.744 156.872 14.524L155.054 15.784C154.682 15.208 154.292 14.794 153.884 14.542C153.488 14.29 152.924 14.164 152.192 14.164C151.268 14.164 150.59 14.386 150.158 14.83C149.738 15.262 149.528 15.91 149.528 16.774V20.626C149.528 21.49 149.738 22.144 150.158 22.588C150.59 23.02 151.268 23.236 152.192 23.236C152.984 23.236 153.596 23.104 154.028 22.84C154.472 22.564 154.868 22.126 155.216 21.526L157.016 22.858C156.632 23.41 156.236 23.854 155.828 24.19C155.42 24.526 154.922 24.784 154.334 24.964C153.758 25.132 153.044 25.216 152.192 25.216ZM158.991 12.4H160.305C160.965 12.4 161.493 12.49 161.889 12.67C162.285 12.85 162.627 13.138 162.915 13.534C163.203 13.918 163.539 14.5 163.923 15.28L164.967 17.386L166.011 15.28C166.395 14.5 166.731 13.918 167.019 13.534C167.307 13.138 167.649 12.85 168.045 12.67C168.441 12.49 168.969 12.4 169.629 12.4H170.943V25H168.639V15.046C168.495 15.046 168.375 15.112 168.279 15.244C168.183 15.376 168.039 15.61 167.847 15.946L164.967 21.292L162.087 15.946C161.895 15.61 161.751 15.376 161.655 15.244C161.559 15.112 161.439 15.04 161.295 15.028V25H158.991V12.4ZM177.963 25.216C177.099 25.216 176.373 25.12 175.785 24.928C175.209 24.736 174.723 24.472 174.327 24.136C173.931 23.8 173.523 23.35 173.103 22.786L174.813 21.364C175.305 22.048 175.779 22.534 176.235 22.822C176.703 23.098 177.279 23.236 177.963 23.236C178.911 23.236 179.601 23.098 180.033 22.822C180.465 22.546 180.681 22.102 180.681 21.49C180.681 21.178 180.579 20.926 180.375 20.734C180.171 20.53 179.817 20.344 179.313 20.176C178.821 20.008 178.083 19.822 177.099 19.618C175.947 19.378 175.089 18.952 174.525 18.34C173.973 17.716 173.697 16.888 173.697 15.856C173.697 15.112 173.883 14.464 174.255 13.912C174.639 13.36 175.179 12.934 175.875 12.634C176.571 12.334 177.381 12.184 178.305 12.184C179.505 12.184 180.459 12.364 181.167 12.724C181.875 13.072 182.451 13.588 182.895 14.272L181.221 15.64C180.849 15.268 180.537 14.986 180.285 14.794C180.045 14.59 179.769 14.434 179.457 14.326C179.145 14.218 178.761 14.164 178.305 14.164C177.621 14.164 177.105 14.314 176.757 14.614C176.409 14.914 176.235 15.346 176.235 15.91C176.235 16.438 176.457 16.828 176.901 17.08C177.345 17.32 177.915 17.518 178.611 17.674C179.643 17.89 180.465 18.112 181.077 18.34C181.689 18.568 182.199 18.934 182.607 19.438C183.015 19.942 183.219 20.632 183.219 21.508C183.219 22.756 182.781 23.686 181.905 24.298C181.041 24.91 179.727 25.216 177.963 25.216Z" fill="#C11414"/>
</svg>
