<svg width="16" height="15" viewBox="0 0 16 15" fill="none" xmlns="http://www.w3.org/2000/svg">
<path fill-rule="evenodd" clip-rule="evenodd" d="M1.62714 0.914436C1.99729 0.561771 2.59743 0.561771 2.96759 0.914436L15.0317 12.4085C15.4018 12.7611 15.4018 13.3329 15.0317 13.6856C14.6615 14.0382 14.0614 14.0382 13.6912 13.6856L1.62714 2.19155C1.25698 1.83889 1.25698 1.2671 1.62714 0.914436Z" fill="black"/>
<path fill-rule="evenodd" clip-rule="evenodd" d="M15.0322 0.987419C15.4023 1.34008 15.4023 1.91187 15.0322 2.26453L2.96808 13.7586C2.59793 14.1112 1.99779 14.1112 1.62763 13.7586C1.25748 13.4059 1.25748 12.8341 1.62763 12.4815L13.6917 0.987419C14.0619 0.634754 14.662 0.634753 15.0322 0.987419Z" fill="black"/>
</svg>
