<svg width="142" height="26" viewBox="0 0 142 26" fill="none" xmlns="http://www.w3.org/2000/svg">
<rect width="142" height="26" fill="white"/>
<path d="M34.6127 2.17969H29.9922V18.6581C29.9922 19.7547 29.9922 20.5252 30.051 21.2958C30.1688 23.3704 31.4637 24.2299 33.671 24.2299C34.701 24.2299 35.5545 24.1706 36.4374 24.0817V20.9105C35.0542 20.9698 34.7304 20.7327 34.6422 20.0214C34.6127 19.6065 34.6127 19.2508 34.6127 18.5692V2.17969Z" fill="#333333"/>
<path d="M52.6833 15.7833C52.6833 11.5747 50.0934 7.75152 45.0903 7.75152C40.1166 7.75152 36.9676 11.3673 36.9676 16.1093C36.9676 21.6811 40.4109 24.3781 44.796 24.3781C48.6219 24.3781 51.5649 22.4517 52.4184 18.8063H47.8567C47.5919 20.2881 46.503 21.1773 44.8843 21.1773C43.1479 21.1773 41.853 20.2881 41.5881 17.2651H52.595C52.6539 16.702 52.6833 16.1982 52.6833 15.7833ZM44.8843 10.9524C46.5912 10.9524 47.6213 12.1082 47.8862 14.331H41.7058C42.0884 11.9897 43.2362 10.9524 44.8843 10.9524Z" fill="#333333"/>
<path d="M61.568 7.75152C57.124 7.75152 53.5335 10.7745 53.5335 16.1982C53.5335 21.5625 56.8297 24.3781 61.1854 24.3781C65.2762 24.3781 68.278 22.3331 68.8961 18.3617H64.3344C63.9812 20.1992 62.8629 21.1773 61.4502 21.1773C59.5373 21.1773 58.2718 19.5768 58.2718 15.9018C58.2718 12.5528 59.5079 10.9524 61.4502 10.9524C62.9806 10.9524 64.0695 11.8415 64.3933 14.005H68.8961C68.6606 10.4782 65.9531 7.75152 61.568 7.75152Z" fill="#333333"/>
<path d="M76.1724 11.2487H79.498V8.28499H76.1724V4.31358H71.5519V8.28499H69.1681V11.2487H71.5519V18.5099C71.5519 19.399 71.5519 20.1103 71.6108 20.9105C71.7874 23.2222 72.9057 24.3485 76.349 24.3485C77.3497 24.3485 78.262 24.2595 79.2038 24.1114V21.1476C76.8493 21.2958 76.3196 20.9402 76.2019 19.3694C76.1724 18.9545 76.1724 18.421 76.1724 17.8875V11.2487Z" fill="#333333"/>
<path d="M88.0951 7.75152C82.886 7.75152 79.8252 11.1302 79.8252 16.05C79.8252 20.9698 82.886 24.3781 88.0951 24.3781C93.2748 24.3781 96.365 20.9698 96.365 16.05C96.365 11.1302 93.2748 7.75152 88.0951 7.75152ZM88.0951 21.1773C85.8878 21.1773 84.5635 19.3397 84.5635 16.05C84.5635 12.7602 85.8878 10.9524 88.0951 10.9524C90.2729 10.9524 91.5973 12.7602 91.5973 16.05C91.5973 19.3397 90.2729 21.1773 88.0951 21.1773Z" fill="#333333"/>
<path d="M113.237 12.1082C112.884 9.35194 110.971 7.75152 107.674 7.75152C106.203 7.75152 105.085 8.04789 104.025 8.75919L102.73 10.656V8.16644H98.1096V23.9632H102.73V16.6427C102.73 12.6121 104.084 10.9524 105.909 10.9524C107.704 10.9524 108.587 11.96 108.704 13.5604C108.763 14.3607 108.763 15.1609 108.763 15.7536V23.9632H113.384V15.0423C113.384 13.7679 113.354 12.9084 113.237 12.1082Z" fill="#333333"/>
<path d="M130.685 15.7833C130.685 11.5747 128.095 7.75152 123.092 7.75152C118.118 7.75152 114.969 11.3673 114.969 16.1093C114.969 21.6811 118.412 24.3781 122.797 24.3781C126.623 24.3781 129.566 22.4517 130.42 18.8063H125.858C125.593 20.2881 124.504 21.1773 122.886 21.1773C121.149 21.1773 119.854 20.2881 119.589 17.2651H130.596C130.655 16.702 130.685 16.1982 130.685 15.7833ZM122.886 10.9524C124.593 10.9524 125.623 12.1082 125.888 14.331H119.707C120.09 11.9897 121.238 10.9524 122.886 10.9524Z" fill="#333333"/>
<path d="M138.039 11.2487H141.365V8.28499H138.039V4.31358H133.418V8.28499H131.035V11.2487H133.418V18.5099C133.418 19.399 133.418 20.1103 133.477 20.9105C133.654 23.2222 134.772 24.3485 138.216 24.3485C139.216 24.3485 140.129 24.2595 141.07 24.1114V21.1476C138.716 21.2958 138.186 20.9402 138.068 19.3694C138.039 18.9545 138.039 18.421 138.039 17.8875V11.2487Z" fill="#333333"/>
<path d="M9.70955 12.101C9.31148 13.5027 9.7258 14.9153 10.7711 15.7184C12.2077 16.8229 14.2441 16.1275 14.6625 14.3617C14.7708 13.9022 14.8019 13.3772 14.699 12.9218C14.3876 11.5569 13.9949 10.2111 13.6266 8.8367C11.8258 9.04669 10.1834 10.4348 9.70955 12.101ZM17.2215 11.7097C17.5911 13.0895 17.6074 14.4599 17.0495 15.8002C15.5222 19.4681 10.6573 20.0817 8.14975 16.9265C6.38686 14.708 6.41664 11.5256 8.23099 9.10805C9.2871 7.70089 10.6736 6.78051 12.358 6.30736L12.8711 6.16556C12.7574 5.59969 12.6166 5.05292 12.5421 4.4966C12.3038 2.70084 13.2353 1.0837 14.9035 0.351485C16.5635 -0.378001 18.5701 0.0569637 19.683 1.38776C20.2328 2.04089 20.2179 2.86037 19.6492 3.38397C19.0914 3.89801 18.3006 3.85575 17.7062 3.26125C17.3718 2.92582 17.0157 2.6613 16.5188 2.66675C15.8079 2.67493 15.1824 3.23671 15.2392 3.94438C15.2893 4.58251 15.4735 5.21245 15.6454 5.83422C15.6752 5.94058 15.9379 6.0183 16.1031 6.04284C17.9093 6.31146 19.4935 7.03958 20.8042 8.32811C24.2677 11.7274 24.6779 17.2333 21.714 21.1998C19.6438 23.9705 16.8261 25.5194 13.4181 25.848C7.16134 26.448 1.68715 22.3983 0.28442 16.2243C-0.995102 10.5738 2.15293 4.5416 7.50796 2.38587C8.3014 2.0668 9.05557 2.3436 9.36428 3.0649C9.67841 3.79711 9.33856 4.54569 8.53835 4.90566C5.3321 6.351 3.37016 8.79853 2.83128 12.3014C2.1096 16.9824 5.07348 21.5407 9.60123 22.8278C13.2881 23.8778 17.2621 22.6015 19.4962 19.6508C21.6436 16.8147 21.3918 12.6982 18.918 10.2793C18.2318 9.60608 17.3798 9.12929 16.4497 8.89806C16.7178 9.87435 16.9764 10.7906 17.2215 11.7097V11.7097Z" fill="#333333"/>
</svg>
